<?xml version="1.0" standalone="no"?>
<!DOCTYPE svg PUBLIC "-//W3C//DTD SVG 20010904//EN"
 "http://www.w3.org/TR/2001/REC-SVG-20010904/DTD/svg10.dtd">
<svg version="1.0" xmlns="http://www.w3.org/2000/svg"
 width="1000.000000pt" height="1000.000000pt" viewBox="0 0 1000.000000 1000.000000"
 preserveAspectRatio="xMidYMid meet">
<metadata>
Created by potrace 1.14, written by Peter Selinger 2001-2017
</metadata>
<g transform="translate(0.000000,1000.000000) scale(0.100000,-0.100000)"
fill="#000000" stroke="none">
<path d="M5367 9983 c-4 -3 -7 -230 -7 -503 l0 -497 78 -7 c78 -7 116 -12 277
-42 50 -8 99 -17 110 -19 39 -6 272 -67 369 -96 300 -92 629 -244 912 -419 80
-50 151 -95 157 -100 7 -5 71 -53 143 -107 178 -133 223 -172 410 -358 424
-421 716 -870 927 -1425 93 -243 194 -629 211 -805 2 -22 7 -56 10 -75 23
-145 30 -269 31 -520 0 -289 -17 -535 -36 -528 -4 2 -60 53 -126 114 -65 61
-134 126 -153 144 -19 18 -69 64 -110 104 -94 89 -333 313 -380 356 -30 27
-101 95 -335 315 -17 17 -91 86 -165 155 -73 69 -147 139 -165 155 -17 17 -94
89 -170 160 -76 72 -153 144 -170 160 -18 17 -90 84 -160 150 -71 66 -143 134
-160 150 -115 109 -162 150 -173 150 -7 0 -38 -27 -68 -60 -31 -33 -96 -103
-144 -155 -48 -52 -103 -111 -121 -131 -19 -20 -80 -85 -135 -145 -56 -60
-117 -125 -135 -145 -19 -20 -81 -87 -139 -149 -58 -63 -133 -143 -166 -179
-34 -37 -75 -80 -90 -97 -121 -130 -234 -252 -259 -279 -31 -32 -217 -233
-275 -295 -18 -19 -78 -84 -135 -145 -56 -60 -114 -123 -129 -140 -16 -16 -74
-79 -129 -139 -132 -140 -142 -152 -267 -286 -58 -62 -116 -125 -130 -140 -22
-24 -93 -100 -274 -295 l-56 -60 0 80 c-1 44 -1 905 -1 1913 l1 1832 -500 0
-500 0 0 -672 c-1 -1607 -2 -4604 -1 -4615 1 -10 107 -13 497 -13 l497 0 46
48 c25 27 89 95 141 151 52 57 111 120 130 140 19 21 85 91 145 156 61 66 141
151 178 191 38 40 76 81 85 92 16 18 169 183 252 272 19 20 62 66 95 102 33
35 110 117 170 182 61 65 121 130 134 145 32 35 231 249 311 335 36 38 76 81
90 96 14 14 52 56 85 91 57 62 250 269 324 348 18 20 74 81 125 135 50 55 102
112 116 126 56 59 233 250 250 269 9 12 24 21 31 21 8 0 55 -40 105 -88 49
-48 146 -139 214 -202 68 -63 142 -133 165 -155 37 -35 225 -211 325 -305 37
-35 282 -265 335 -315 96 -90 304 -285 326 -306 212 -194 436 -412 549 -534
36 -38 128 -137 205 -220 76 -82 192 -206 256 -275 64 -69 127 -138 141 -154
l25 -30 80 160 c45 87 93 188 108 224 15 36 35 83 45 105 19 42 108 278 133
355 43 129 136 486 152 580 3 19 10 58 15 85 10 54 15 81 26 160 3 28 8 59 10
70 2 11 7 47 10 80 3 33 7 71 10 85 26 162 26 777 0 1000 -3 19 -7 58 -10 85
-12 107 -17 142 -51 340 -39 230 -169 685 -254 890 -95 229 -204 463 -271 580
-13 22 -34 60 -48 85 -25 46 -180 297 -194 315 -4 6 -49 67 -100 138 -196 273
-441 545 -697 777 -46 41 -89 80 -95 85 -25 24 -264 214 -306 243 -301 215
-629 404 -924 534 -50 22 -104 46 -121 53 -178 80 -692 239 -835 259 -14 2
-43 9 -65 15 -75 20 -359 62 -505 76 -41 3 -87 8 -101 11 -14 2 -29 1 -32 -3z"/>
<path d="M4015 9904 c-27 -7 -86 -20 -130 -29 -104 -23 -229 -57 -390 -107
-831 -258 -1628 -771 -2205 -1417 -36 -40 -74 -83 -85 -95 -11 -12 -36 -42
-55 -66 -19 -24 -47 -58 -61 -75 -163 -192 -402 -563 -544 -845 -90 -178 -195
-413 -197 -440 0 -3 -5 -14 -10 -24 -42 -78 -166 -480 -212 -687 -35 -157 -67
-334 -80 -439 -22 -173 -26 -209 -33 -314 -15 -199 -7 -756 12 -866 2 -14 7
-52 10 -85 6 -65 32 -245 40 -285 3 -14 7 -36 10 -50 30 -198 185 -744 254
-895 5 -11 33 -76 61 -145 112 -267 266 -554 433 -805 54 -81 214 -301 241
-332 6 -7 16 -18 21 -25 160 -205 422 -478 635 -660 30 -26 69 -59 85 -73 105
-91 530 -395 551 -395 3 0 20 -11 38 -25 18 -14 36 -25 40 -25 3 0 23 -10 44
-23 158 -99 542 -282 749 -358 257 -93 541 -175 738 -214 17 -3 41 -8 55 -10
92 -18 192 -35 235 -41 28 -3 59 -8 70 -10 11 -3 47 -7 80 -10 33 -3 71 -7 85
-9 152 -26 842 -26 1002 0 13 2 50 6 83 9 33 4 71 8 85 10 14 3 48 7 75 11
170 21 560 111 763 176 300 96 637 240 892 382 30 17 71 39 90 50 187 103 522
336 701 487 180 152 359 323 498 476 30 32 70 76 89 97 l35 38 -20 22 c-31 35
-551 595 -613 660 l-55 58 -23 -28 c-94 -112 -135 -156 -277 -298 -88 -89
-184 -181 -214 -205 -29 -25 -59 -50 -65 -55 -63 -60 -355 -267 -480 -341
-316 -188 -693 -350 -996 -429 -94 -24 -261 -65 -285 -68 -16 -3 -59 -10 -95
-16 -95 -18 -102 -19 -166 -26 -33 -4 -70 -9 -84 -11 -120 -19 -582 -26 -765
-12 -132 11 -266 29 -400 55 -44 8 -89 16 -100 18 -53 8 -318 79 -426 115
-240 80 -502 195 -688 302 -46 26 -85 48 -87 48 -5 0 -101 60 -189 119 -89 58
-303 220 -386 291 -68 58 -338 325 -405 400 -22 25 -70 83 -107 130 -38 47
-74 92 -80 100 -56 69 -252 364 -264 397 -3 10 -12 25 -19 33 -14 17 -194 373
-198 393 -2 6 -8 25 -14 40 -7 16 -21 52 -33 80 -11 29 -25 63 -31 77 -61 150
-159 516 -193 720 -3 19 -7 46 -10 60 -2 14 -7 54 -11 90 -3 36 -8 68 -10 71
-9 15 -19 249 -19 459 0 208 7 363 19 440 2 14 7 50 11 80 4 30 9 64 10 75 2
11 7 40 10 64 3 25 8 47 10 50 1 3 6 22 9 41 35 208 130 531 221 752 166 400
396 774 676 1101 55 64 338 349 399 402 141 122 239 195 440 329 232 154 476
282 705 370 39 15 79 31 90 36 26 12 292 99 319 105 12 2 60 14 109 26 l87 22
0 509 0 508 -27 -2 c-16 -1 -50 -8 -78 -14z"/>
</g>
</svg>
